<svg xmlns="http://www.w3.org/2000/svg" xmlns:xlink="http://www.w3.org/1999/xlink" zoomAndPan="magnify" preserveAspectRatio="xMidYMid meet" version="1.2" viewBox="8.73 168.33 363.06 43.34"><defs/><g id="b29937e773"><g style="fill:#000000;fill-opacity:1;"><g transform="translate(3.898434, 210.749986)"><path style="stroke:none" d="M 4.828125 0 L 4.828125 -41.5 L 17.828125 -41.5 C 23.035156 -41.5 27.179688 -40.703125 30.265625 -39.109375 C 33.359375 -37.523438 35.597656 -35.1875 36.984375 -32.09375 C 38.367188 -29.007812 39.0625 -25.226562 39.0625 -20.75 C 39.0625 -16.269531 38.367188 -12.484375 36.984375 -9.390625 C 35.597656 -6.304688 33.359375 -3.96875 30.265625 -2.375 C 27.179688 -0.789062 23.035156 0 17.828125 0 Z M 13.3125 -7.078125 L 17.03125 -7.078125 C 20.613281 -7.078125 23.347656 -7.566406 25.234375 -8.546875 C 27.128906 -9.523438 28.429688 -11.019531 29.140625 -13.03125 C 29.847656 -15.039062 30.203125 -17.613281 30.203125 -20.75 C 30.203125 -23.882812 29.847656 -26.457031 29.140625 -28.46875 C 28.429688 -30.476562 27.128906 -31.972656 25.234375 -32.953125 C 23.347656 -33.929688 20.613281 -34.421875 17.03125 -34.421875 L 13.3125 -34.421875 Z M 13.3125 -7.078125 "/></g></g><g style="fill:#000000;fill-opacity:1;"><g transform="translate(45.033372, 210.749986)"><path style="stroke:none" d="M 25.328125 -41.5 L 40.578125 0 L 31.25 0 L 28.5 -8.546875 L 12.265625 -8.546875 L 9.453125 0 L 0.1875 0 L 15.4375 -41.5 Z M 20.453125 -32.828125 L 20.265625 -32.828125 L 14.59375 -15.375 L 26.125 -15.375 Z M 20.453125 -32.828125 "/></g></g><g style="fill:#000000;fill-opacity:1;"><g transform="translate(85.802191, 210.749986)"><path style="stroke:none" d="M 2.3125 -3.046875 L 4.9375 -9.703125 C 5.789062 -9.171875 6.878906 -8.640625 8.203125 -8.109375 C 9.523438 -7.585938 10.910156 -7.140625 12.359375 -6.765625 C 13.804688 -6.398438 15.160156 -6.21875 16.421875 -6.21875 C 20.972656 -6.21875 23.25 -7.96875 23.25 -11.46875 C 23.25 -12.8125 22.8125 -13.835938 21.9375 -14.546875 C 21.0625 -15.265625 19.546875 -15.988281 17.390625 -16.71875 L 12.9375 -18.1875 C 9.644531 -19.25 7.179688 -20.773438 5.546875 -22.765625 C 3.921875 -24.753906 3.109375 -27.070312 3.109375 -29.71875 C 3.109375 -33.5 4.390625 -36.5625 6.953125 -38.90625 C 9.515625 -41.25 13.257812 -42.421875 18.1875 -42.421875 C 19.851562 -42.421875 21.835938 -42.164062 24.140625 -41.65625 C 26.441406 -41.144531 28.546875 -40.398438 30.453125 -39.421875 L 27.890625 -32.65625 C 26.390625 -33.382812 24.722656 -34.003906 22.890625 -34.515625 C 21.054688 -35.023438 19.488281 -35.28125 18.1875 -35.28125 C 15.90625 -35.28125 14.265625 -34.84375 13.265625 -33.96875 C 12.273438 -33.09375 11.78125 -31.921875 11.78125 -30.453125 C 11.78125 -29.398438 12.070312 -28.472656 12.65625 -27.671875 C 13.25 -26.878906 14.378906 -26.21875 16.046875 -25.6875 L 20.390625 -24.296875 C 24.296875 -23.066406 27.191406 -21.523438 29.078125 -19.671875 C 30.972656 -17.828125 31.921875 -15.335938 31.921875 -12.203125 C 31.921875 -8.140625 30.535156 -4.9375 27.765625 -2.59375 C 25.003906 -0.25 21.222656 0.921875 16.421875 0.921875 C 14.710938 0.921875 12.992188 0.722656 11.265625 0.328125 C 9.535156 -0.0546875 7.894531 -0.550781 6.34375 -1.15625 C 4.800781 -1.769531 3.457031 -2.398438 2.3125 -3.046875 Z M 2.3125 -3.046875 "/></g></g><g style="fill:#000000;fill-opacity:1;"><g transform="translate(120.040669, 210.749986)"><path style="stroke:none" d=""/></g></g><g style="fill:#000000;fill-opacity:1;"><g transform="translate(134.138862, 210.749986)"><path style="stroke:none" d="M 22.453125 -22.28125 L 38.328125 -22.28125 L 38.328125 -2.6875 C 36.410156 -1.664062 34.03125 -0.804688 31.1875 -0.109375 C 28.34375 0.578125 25.453125 0.921875 22.515625 0.921875 C 18.117188 0.921875 14.457031 0.00390625 11.53125 -1.828125 C 8.601562 -3.660156 6.414062 -6.203125 4.96875 -9.453125 C 3.53125 -12.710938 2.8125 -16.476562 2.8125 -20.75 C 2.8125 -23.675781 3.226562 -26.441406 4.0625 -29.046875 C 4.894531 -31.648438 6.164062 -33.945312 7.875 -35.9375 C 9.582031 -37.9375 11.757812 -39.515625 14.40625 -40.671875 C 17.050781 -41.835938 20.160156 -42.421875 23.734375 -42.421875 C 26.546875 -42.421875 29.191406 -42.101562 31.671875 -41.46875 C 34.148438 -40.84375 36.207031 -40.160156 37.84375 -39.421875 L 35.390625 -32.828125 C 33.847656 -33.484375 32.066406 -34.035156 30.046875 -34.484375 C 28.035156 -34.929688 25.929688 -35.15625 23.734375 -35.15625 C 20.890625 -35.15625 18.570312 -34.550781 16.78125 -33.34375 C 14.988281 -32.144531 13.6875 -30.46875 12.875 -28.3125 C 12.0625 -26.15625 11.65625 -23.632812 11.65625 -20.75 C 11.65625 -16.394531 12.539062 -12.90625 14.3125 -10.28125 C 16.082031 -7.65625 18.941406 -6.34375 22.890625 -6.34375 C 24.191406 -6.34375 25.429688 -6.421875 26.609375 -6.578125 C 27.785156 -6.742188 28.863281 -7.035156 29.84375 -7.453125 L 29.84375 -15.203125 L 22.453125 -16.234375 Z M 22.453125 -22.28125 "/></g></g><g style="fill:#000000;fill-opacity:1;"><g transform="translate(176.006234, 210.749986)"><path style="stroke:none" d="M 25.328125 -41.5 L 40.578125 0 L 31.25 0 L 28.5 -8.546875 L 12.265625 -8.546875 L 9.453125 0 L 0.1875 0 L 15.4375 -41.5 Z M 20.453125 -32.828125 L 20.265625 -32.828125 L 14.59375 -15.375 L 26.125 -15.375 Z M 20.453125 -32.828125 "/></g></g><g style="fill:#000000;fill-opacity:1;"><g transform="translate(216.775053, 210.749986)"><path style="stroke:none" d="M 13.3125 0 L 4.828125 0 L 4.828125 -41.5 L 22.34375 -41.5 C 27.257812 -41.5 30.882812 -40.410156 33.21875 -38.234375 C 35.5625 -36.054688 36.734375 -32.972656 36.734375 -28.984375 C 36.734375 -25.816406 35.976562 -23.203125 34.46875 -21.140625 C 32.96875 -19.085938 30.691406 -17.695312 27.640625 -16.96875 L 39 -0.96875 L 39 0 L 29.71875 0 L 18.609375 -16.421875 L 13.3125 -16.421875 Z M 13.3125 -23.5 L 21.90625 -23.5 C 23.820312 -23.5 25.296875 -23.992188 26.328125 -24.984375 C 27.367188 -25.984375 27.890625 -27.316406 27.890625 -28.984375 C 27.890625 -30.648438 27.367188 -31.972656 26.328125 -32.953125 C 25.296875 -33.929688 23.820312 -34.421875 21.90625 -34.421875 L 13.3125 -34.421875 Z M 13.3125 -23.5 "/></g></g><g style="fill:#000000;fill-opacity:1;"><g transform="translate(257.299746, 210.749986)"><path style="stroke:none" d="M 25.328125 -41.5 L 40.578125 0 L 31.25 0 L 28.5 -8.546875 L 12.265625 -8.546875 L 9.453125 0 L 0.1875 0 L 15.4375 -41.5 Z M 20.453125 -32.828125 L 20.265625 -32.828125 L 14.59375 -15.375 L 26.125 -15.375 Z M 20.453125 -32.828125 "/></g></g><g style="fill:#000000;fill-opacity:1;"><g transform="translate(297.092018, 210.749986)"><path style="stroke:none" d="M 22.453125 -22.28125 L 38.328125 -22.28125 L 38.328125 -2.6875 C 36.410156 -1.664062 34.03125 -0.804688 31.1875 -0.109375 C 28.34375 0.578125 25.453125 0.921875 22.515625 0.921875 C 18.117188 0.921875 14.457031 0.00390625 11.53125 -1.828125 C 8.601562 -3.660156 6.414062 -6.203125 4.96875 -9.453125 C 3.53125 -12.710938 2.8125 -16.476562 2.8125 -20.75 C 2.8125 -23.675781 3.226562 -26.441406 4.0625 -29.046875 C 4.894531 -31.648438 6.164062 -33.945312 7.875 -35.9375 C 9.582031 -37.9375 11.757812 -39.515625 14.40625 -40.671875 C 17.050781 -41.835938 20.160156 -42.421875 23.734375 -42.421875 C 26.546875 -42.421875 29.191406 -42.101562 31.671875 -41.46875 C 34.148438 -40.84375 36.207031 -40.160156 37.84375 -39.421875 L 35.390625 -32.828125 C 33.847656 -33.484375 32.066406 -34.035156 30.046875 -34.484375 C 28.035156 -34.929688 25.929688 -35.15625 23.734375 -35.15625 C 20.890625 -35.15625 18.570312 -34.550781 16.78125 -33.34375 C 14.988281 -32.144531 13.6875 -30.46875 12.875 -28.3125 C 12.0625 -26.15625 11.65625 -23.632812 11.65625 -20.75 C 11.65625 -16.394531 12.539062 -12.90625 14.3125 -10.28125 C 16.082031 -7.65625 18.941406 -6.34375 22.890625 -6.34375 C 24.191406 -6.34375 25.429688 -6.421875 26.609375 -6.578125 C 27.785156 -6.742188 28.863281 -7.035156 29.84375 -7.453125 L 29.84375 -15.203125 L 22.453125 -16.234375 Z M 22.453125 -22.28125 "/></g></g><g style="fill:#000000;fill-opacity:1;"><g transform="translate(338.959378, 210.749986)"><path style="stroke:none" d="M 4.828125 -41.5 L 32.65625 -41.5 L 32.65625 -34.421875 L 13.3125 -34.421875 L 13.3125 -24.46875 L 30.640625 -24.46875 L 30.640625 -17.390625 L 13.3125 -17.390625 L 13.3125 -7.078125 L 32.828125 -7.078125 L 32.828125 0 L 4.828125 0 Z M 4.828125 -41.5 "/></g></g></g></svg>